<svg width="99" height="30" viewBox="0 0 99 30" fill="none" xmlns="http://www.w3.org/2000/svg">
<path d="M8.48374 16.8283C8.48374 18.9711 6.61202 20.2563 4.3986 20.2563C3.39874 20.2563 2.49865 20.0133 1.69836 19.5416C1.04018 19.1344 0.563434 18.5972 0.266095 17.9289C0.257023 17.9098 0.10684 17.5852 0 17.1115L2.70125 16.412L2.70428 16.4241C3.00262 17.1357 3.65677 17.5701 4.42682 17.5701C5.0981 17.5701 5.42669 17.3706 5.42669 16.9563C5.42669 16.5703 5.05578 16.3848 4.19803 16.156L3.08426 15.8415C1.49879 15.3839 0.626935 14.3841 0.626935 12.8419C0.583594 10.9561 2.45531 9.71331 4.42682 9.74254C5.18378 9.74254 5.88429 9.928 6.55557 10.2858C7.00309 10.5237 7.3599 10.8462 7.62095 11.2454C7.82354 11.5377 7.99691 11.9741 8.09266 12.3773L5.62021 13.0133V13.0102L5.61316 13.0133C5.41359 12.5133 5.04166 12.2704 4.4994 12.2704C4.05692 12.2704 3.68499 12.4277 3.68499 12.7704C3.68499 13.1131 4.05591 13.2844 4.79875 13.4991L5.87018 13.7995C7.61289 14.2853 8.48475 15.2993 8.48475 16.8273L8.48374 16.8283ZM19.7121 14.9999C19.6687 17.8997 21.9829 20.3137 25.0833 20.2563C28.1827 20.3137 30.4969 17.8997 30.4546 14.9999C30.4969 12.1001 28.1837 9.6861 25.0833 9.74355C21.9839 9.6861 19.6697 12.1001 19.7121 14.9999ZM27.3975 14.9999C27.3975 16.3284 26.5549 17.428 25.0833 17.428C23.6118 17.428 22.7691 16.3284 22.7691 14.9999C22.7691 13.6715 23.6118 12.5718 25.0833 12.5718C26.5549 12.5718 27.3975 13.6715 27.3975 14.9999ZM31.655 9.97538V19.975H34.6546V17.1609H36.6544C38.7972 17.1609 40.1972 15.647 40.1972 13.5465C40.1972 11.4459 38.7972 9.97538 36.6544 9.97538H31.655ZM37.1402 13.5858C37.1402 14.0998 36.8257 14.4717 36.1262 14.4717H34.6546V12.7149H36.1262C36.8257 12.7149 37.1402 13.0858 37.1402 13.5868V13.5858ZM15.5604 9.97638V13.7833L12.4116 14.5987V9.97638H9.41204V19.976H12.4116V17.2436L15.5604 16.4281V19.976H18.56V9.97638H15.5604ZM41.5579 19.975H46.6722C48.7152 19.975 50.0145 18.7605 50.0145 17.0893C50.0145 15.6752 49.2142 14.8467 48.3 14.504C48.8715 14.0464 49.1567 13.4044 49.1567 12.5899C49.1567 11.076 47.8716 9.97638 45.9142 9.97638H41.5569V19.976L41.5579 19.975ZM44.5575 13.7894V12.4176H45.4858C45.9999 12.4176 46.2569 12.718 46.2569 13.103C46.2569 13.488 45.9999 13.7884 45.4858 13.7884H44.5575V13.7894ZM44.5575 17.5177V16.1036H46.1007C46.6863 16.1036 47.0149 16.3888 47.0149 16.8031C47.0149 17.2748 46.7145 17.5177 46.1007 17.5177H44.5575ZM60.5423 14.9747C60.4989 17.8745 62.8131 20.2885 65.9135 20.2311C68.0705 20.2311 69.7709 19.2171 70.6699 17.5167L67.9415 16.2024C67.5272 17.0027 66.8418 17.4018 65.9135 17.4018C64.4561 17.4018 63.5993 16.2588 63.5993 14.9737C63.5993 13.6886 64.4561 12.5456 65.9135 12.5456C66.8418 12.5456 67.5272 12.9457 67.9415 13.745L70.6699 12.4307C69.7699 10.7303 68.0705 9.71634 65.9135 9.71634C62.8142 9.65888 60.4999 12.0729 60.5423 14.9727V14.9747ZM71.6275 19.974H74.6271V15.8314H75.5846L77.7698 19.974H81.2834L78.2838 14.5887L81.0123 9.97437H77.67L74.6271 15.2166V9.97437H71.6275V19.974ZM60.8991 19.974H57.7281L57.1496 18.3886L53.5362 19.3239L53.2993 19.973H50.1284L54.2709 9.97336H56.7565L60.8991 19.973V19.974ZM56.2606 15.9746L55.5137 14.0464L54.6015 16.405L56.2606 15.9756V15.9746Z" fill="white"/>
<path d="M95.9873 16.4998H95.4541L96.4036 15.7166C97.0628 15.1734 97.35 14.2793 97.0769 13.471C96.7937 12.6324 96.0347 12.0881 95.1538 12.0881H86.7335C86.5753 12.0881 86.4977 11.8966 86.6095 11.7857L92.1975 6.29049C92.266 6.22295 92.3789 6.29956 92.3406 6.38826L90.3953 10.9411H92.8899L97.5647 0H95.3231L84.2318 10.9058C83.62 11.5075 83.4507 12.4197 83.8135 13.2049C84.1512 13.9356 84.9072 14.3821 85.7115 14.3821H93.9241C94.0894 14.3821 94.164 14.5898 94.036 14.6946L92.1269 16.269C91.8437 16.5028 91.621 16.8002 91.4768 17.1378L90.7693 18.7938H94.809C94.9743 18.7938 95.0489 19.0015 94.9209 19.1063L86.6811 25.8917C86.6095 25.9501 86.5077 25.8735 86.544 25.7889L89.5325 18.7938L89.7875 18.1961L90.9275 15.5292H88.4329L82.2502 30H85.3023L97.3289 20.0961C98.0092 19.5357 98.2491 18.6326 97.9346 17.8061C97.6312 17.0078 96.84 16.4998 95.9863 16.4998H95.9873Z" fill="#FF3407"/>
</svg>
