<svg width="12" height="13" viewBox="0 0 12 13" fill="none" xmlns="http://www.w3.org/2000/svg">
<path fill-rule="evenodd" clip-rule="evenodd" d="M10.575 5.325C10.575 6.525 10.2 7.575 9.525 8.475L11.775 10.8C12.075 11.1 12.075 11.55 11.775 11.85C11.625 12 11.4 12.075 11.25 12.075C11.1 12.075 10.875 12 10.725 11.85L8.475 9.6C7.65 10.275 6.525 10.65 5.325 10.65C2.4 10.65 0 8.25 0 5.325C0 2.4 2.4 0 5.325 0C8.25 0 10.575 2.4 10.575 5.325ZM1.5 5.325C1.5 7.425 3.225 9.075 5.325 9.075C7.425 9.075 9.15 7.425 9.15 5.325C9.15 3.225 7.425 1.5 5.325 1.5C3.225 1.5 1.5 3.225 1.5 5.325ZM4.5 3H6V4.5H7.5V6H6V7.5H4.5V6H3V4.5H4.5V3Z" fill="#3185FC"/>
</svg>
