<svg width="100" height="100" viewBox="0 0 100 100" fill="none" xmlns="http://www.w3.org/2000/svg">
<g clip-path="url(#clip0_533_216747)">
<rect width="100" height="100" fill="white"/>
<path d="M16.3619 12.5997C16.5547 12.7517 16.6196 12.9907 16.5069 13.1337L15.4865 14.4277C15.3738 14.5706 15.1262 14.5632 14.9334 14.4113L9.34953 10.0081C9.15678 9.8561 9.0919 9.61702 9.20461 9.47409L10.225 8.18011C10.3377 8.03718 10.5853 8.04453 10.778 8.19651L16.3619 12.5997Z" fill="#FF3407"/>
<path d="M95.8921 46.8967C96.1297 46.9583 96.2852 47.1511 96.2395 47.3273L95.8258 48.9224C95.7801 49.0986 95.5505 49.1915 95.3129 49.1299L88.4295 47.3447C88.1919 47.2831 88.0363 47.0903 88.082 46.9141L88.4957 45.319C88.5414 45.1428 88.7711 45.0499 89.0087 45.1116L95.8921 46.8967Z" fill="#FF3407"/>
<path d="M90.2432 8.3629L89.2279 7.84913L81.9301 10.2427C81.0482 10.8399 81.4724 11.6246 81.7947 11.9422L83.2946 12.7012L77.0003 18.0373L78.3617 18.7263L86.0385 16.9012C86.9722 16.0404 86.2659 15.3062 85.7814 15.061C87.4942 14.8264 87.1075 13.4714 86.7505 13.1458L85.366 12.4452L90.2432 8.3629Z" fill="#FF3407"/>
<circle cx="47.5" cy="76.4213" r="1.5" fill="#FF3407"/>
<circle cx="13.5" cy="44.5" r="2.5" fill="#FF3407"/>
<circle cx="32" cy="14.9213" r="1" fill="#FF3407"/>
<circle cx="85.5" cy="31.5" r="1.5" fill="#FF3407"/>
<path d="M16.2994 65.1618C16.1672 64.8111 16.4642 64.4488 16.8341 64.5096L20.1625 65.0574C20.5324 65.1183 20.6976 65.5567 20.46 65.8465L18.3214 68.4552C18.0837 68.745 17.6215 68.669 17.4892 68.3182L16.2994 65.1618Z" fill="#FF3407"/>
<path d="M43.8412 6.10041C43.3388 5.7899 43.3609 5.05193 43.8811 4.77208L48.5622 2.25337C49.0823 1.97351 49.7104 2.36166 49.6927 2.95203L49.5334 8.26539C49.5157 8.85576 48.8655 9.20558 48.3631 8.89506L43.8412 6.10041Z" fill="#FF3407"/>
<path d="M76.1465 34.6171C79.964 49.3173 71.1419 64.3289 56.4416 68.1464C41.7414 71.964 26.7298 63.1418 22.9123 48.4416C19.0947 33.7414 27.9169 18.7297 42.6171 14.9122C57.3173 11.0947 72.3289 19.9168 76.1465 34.6171Z" fill="#B9C9F5"/>
<path fill-rule="evenodd" clip-rule="evenodd" d="M56.2555 67.4298C70.56 63.7151 79.1447 49.1076 75.4299 34.8032C71.7151 20.4987 57.1077 11.914 42.8032 15.6288C28.4987 19.3436 19.9141 33.951 23.6288 48.2555C27.3436 62.5599 41.9511 71.1446 56.2555 67.4298ZM56.4416 68.1464C71.1419 64.3289 79.964 49.3173 76.1465 34.6171C72.3289 19.9168 57.3173 11.0947 42.6171 14.9122C27.9169 18.7297 19.0947 33.7414 22.9123 48.4416C26.7298 63.1418 41.7414 71.964 56.4416 68.1464Z" fill="black" stroke="black" stroke-width="0.4"/>
<path d="M68.1631 36.6913C70.8354 46.9814 64.6598 57.4896 54.3697 60.1618C44.0795 62.8341 33.5714 56.6586 30.8991 46.3684C28.2269 36.0783 34.4024 25.5701 44.6925 22.8979C54.9827 20.2256 65.4908 26.4011 68.1631 36.6913Z" fill="white"/>
<path fill-rule="evenodd" clip-rule="evenodd" d="M54.1836 59.4452C64.078 56.8757 70.016 46.7718 67.4465 36.8774C64.877 26.983 54.773 21.045 44.8786 23.6145C34.9842 26.184 29.0462 36.2879 31.6157 46.1823C34.1852 56.0767 44.2892 62.0147 54.1836 59.4452ZM54.3697 60.1618C64.6598 57.4896 70.8354 46.9814 68.1631 36.6913C65.4908 26.4011 54.9827 20.2256 44.6925 22.8979C34.4024 25.5701 28.2269 36.0783 30.8991 46.3684C33.5714 56.6586 44.0795 62.8341 54.3697 60.1618Z" fill="black" stroke="black" stroke-width="0.4"/>
<path d="M58.2972 42.4697C57.6186 39.8565 54.8843 38.799 51.5091 38.9574L49.0771 39.0642C47.9992 39.1232 47.0663 38.9512 46.8715 38.2009C46.7035 37.5541 47.3641 36.9406 48.3562 36.683C49.4444 36.4004 50.3654 36.6583 51.0471 37.3098L54.7472 34.7195C53.7376 33.4627 51.8568 32.9292 49.893 32.9973L49.1808 30.2547L44.4761 31.4765L45.1749 34.1673C42.7371 35.4356 41.1559 37.5033 41.727 39.7026C42.3654 42.1605 44.6113 43.1791 47.8197 43.0364L50.2837 42.9212C51.6058 42.8817 52.7003 43.1498 52.9288 44.0295C53.2043 45.0903 52.2572 45.9162 50.753 46.3069C49.0568 46.7474 47.4841 46.2168 46.5788 45.0986L42.6495 47.8589C43.9855 49.5833 46.5753 50.3469 49.334 50.1829L50.0059 52.7702L54.7106 51.5484L54.032 48.9352C57.0139 47.5256 58.9759 45.0829 58.2972 42.4697Z" fill="black"/>
<path d="M24.5888 81.4894C26.8606 73.6255 35.6694 67.8404 35.6694 67.8404L51.8835 67.9669H64.5859C64.5859 67.9669 65.8475 60.268 66.8688 57.6724C67.8845 55.0713 71.9968 55.1647 71.9968 55.1647L70.8171 63.1441C70.8171 63.1441 74.0774 56.0392 75.257 54.4554C76.4311 52.8716 80.2704 53.0476 80.2704 53.0476L78.3315 58.0628C78.3315 58.0628 80.6853 54.8953 82.7113 54.1089C84.7374 53.3281 87.457 54.3069 87.457 54.3069L73.1272 74.5989L39.8799 84.492L38.2088 89.8811L36.5814 106.445H12.5469C18.6032 93.3346 24.5888 81.4839 24.5888 81.4839V81.4894Z" fill="white"/>
<path d="M37.1221 106.505C37.0893 106.786 36.8629 107.001 36.576 107C36.2897 107 36.0319 106.788 36.0319 106.505L36.0736 105.9L37.652 89.8316C37.6574 89.7931 37.6629 89.7601 37.6738 89.7216L39.345 84.3324C39.3996 84.1564 39.536 84.0189 39.7108 83.9694L72.7778 74.1314L86.5509 54.6258C85.6662 54.4058 84.1151 54.1528 82.8918 54.6258C81.035 55.3407 78.7741 58.3597 78.7522 58.3927C78.5884 58.6127 78.288 58.6732 78.0477 58.5412C77.802 58.4037 77.7038 58.1178 77.8021 57.8593L79.4514 53.5919C78.2172 53.6359 76.333 53.8944 75.6777 54.7798C74.5472 56.2975 71.3306 63.298 71.2978 63.3695C71.1886 63.617 70.9101 63.7435 70.648 63.6665C70.3913 63.5895 70.2274 63.331 70.2656 63.0616L71.3469 55.7421C70.2438 55.8356 68.0104 56.226 67.366 57.8758C66.383 60.3944 65.1269 67.9888 65.116 68.0658C65.0723 68.3298 64.8428 68.5222 64.5752 68.5222H51.8727L35.828 68.3958C34.7249 69.1601 27.1501 74.5933 25.1076 81.6488C25.0967 81.6818 25.0859 81.7093 25.0695 81.7423C25.0149 81.8578 19.2588 93.2576 13.399 105.9L12.9344 106.715C12.623 107.029 12.3115 107.029 12.0828 106.747C11.9845 106.588 11.9738 106.39 12.0503 106.219C17.8554 93.6535 23.666 82.1052 24.081 81.2858C26.4074 73.345 35.0088 67.6204 35.3747 67.3784C35.4621 67.3234 35.5712 67.2904 35.675 67.2904L51.889 67.4224H64.1275C64.4224 65.7011 65.4708 59.751 66.361 57.4689C67.5023 54.5433 71.8223 54.6093 72.008 54.6093C72.1609 54.6148 72.3136 54.6863 72.4119 54.8073C72.5102 54.9283 72.554 55.0877 72.5322 55.2417L71.893 59.575C72.9088 57.4743 74.1594 55.0053 74.8148 54.1199C76.1254 52.3546 79.8663 52.4701 80.2868 52.4921C80.4616 52.4976 80.62 52.5911 80.7183 52.7396C80.8111 52.8881 80.8329 53.075 80.7673 53.24L79.9266 55.4232C80.713 54.6698 81.6304 53.9384 82.5097 53.5974C84.6996 52.7505 87.5173 53.7459 87.6375 53.7899C87.8013 53.8449 87.927 53.9769 87.9761 54.1418C88.0253 54.3068 87.9979 54.4828 87.8996 54.6258L73.5698 74.9178C73.4988 75.0168 73.3949 75.0938 73.2802 75.1268L40.3116 84.9373L38.7442 89.9966L37.1221 106.505Z" fill="#080717"/>
<path d="M36.0644 77.5575C36.2992 77.5575 36.5177 77.4035 36.5887 77.1615C36.6924 76.8206 39.1609 68.9952 50.2961 68.7148C61.8519 68.4233 64.7189 68.3959 64.7462 68.3959C65.0466 68.3959 65.2925 68.1429 65.287 67.8404C65.287 67.538 65.0413 67.296 64.7409 67.296C64.7136 67.296 61.8464 67.3235 50.2743 67.6149C44.0431 67.7689 40.3787 70.2546 38.3963 72.3113C36.2337 74.5549 35.5731 76.7546 35.5458 76.8481C35.4584 77.1396 35.6276 77.4475 35.9116 77.53C35.9608 77.5465 36.0153 77.552 36.0644 77.552V77.5575Z" fill="#080717"/>
<path d="M68.7538 75.9903C69.0214 75.9903 69.2564 75.7869 69.2946 75.5119C69.453 74.2856 72.5493 55.4893 72.5766 55.3024C72.6258 55.0054 72.4238 54.7195 72.1289 54.67C71.834 54.6205 71.5501 54.824 71.5009 55.1209C71.3753 55.8963 68.3717 74.1261 68.2133 75.3689C68.1751 75.6714 68.388 75.9464 68.6829 75.9849C68.7047 75.9849 68.732 75.9849 68.7538 75.9849V75.9903Z" fill="#080717"/>
<path d="M71.4795 75.6275C71.6925 75.6275 71.9001 75.4956 71.9875 75.2866L80.8343 53.4053C80.949 53.1248 80.8126 52.8004 80.5341 52.6904C80.2555 52.5749 79.9386 52.7124 79.824 52.9928L70.9771 74.8741C70.8624 75.1546 70.9988 75.479 71.2773 75.589C71.3429 75.6165 71.4138 75.6275 71.4848 75.6275H71.4795Z" fill="#080717"/>
</g>
<defs>
<clipPath id="clip0_533_216747">
<rect width="100" height="100" fill="white"/>
</clipPath>
</defs>
</svg>
