<svg width="100" height="100" viewBox="0 0 100 100" fill="none" xmlns="http://www.w3.org/2000/svg">
<g clip-path="url(#clip0_533_216766)">
<rect width="100" height="100" fill="white"/>
<path d="M76.1465 33.6168C79.964 48.317 71.1419 63.3287 56.4416 67.1462C41.7414 70.9637 26.7298 62.1416 22.9123 47.4413C19.0947 32.7411 27.9169 17.7295 42.6171 13.912C57.3173 10.0944 72.3289 18.9166 76.1465 33.6168Z" fill="#B9C9F5"/>
<path fill-rule="evenodd" clip-rule="evenodd" d="M56.2555 66.4296C70.56 62.7148 79.1447 48.1074 75.4299 33.8029C71.7151 19.4984 57.1077 10.9138 42.8032 14.6286C28.4987 18.3433 19.9141 32.9508 23.6288 47.2552C27.3436 61.5597 41.9511 70.1444 56.2555 66.4296ZM56.4416 67.1462C71.1419 63.3287 79.964 48.317 76.1465 33.6168C72.3289 18.9166 57.3173 10.0944 42.6171 13.912C27.9169 17.7295 19.0947 32.7411 22.9123 47.4413C26.7298 62.1416 41.7414 70.9637 56.4416 67.1462Z" fill="black" stroke="black" stroke-width="0.4"/>
<path d="M68.1631 35.6909C70.8354 45.9811 64.6598 56.4892 54.3697 59.1615C44.0795 61.8337 33.5714 55.6582 30.8991 45.3681C28.2269 35.0779 34.4024 24.5698 44.6925 21.8975C54.9827 19.2252 65.4908 25.4007 68.1631 35.6909Z" fill="white"/>
<path fill-rule="evenodd" clip-rule="evenodd" d="M54.1836 58.4449C64.078 55.8754 70.016 45.7714 67.4465 35.877C64.877 25.9826 54.773 20.0446 44.8786 22.6141C34.9842 25.1836 29.0462 35.2876 31.6157 45.182C34.1852 55.0764 44.2892 61.0144 54.1836 58.4449ZM54.3697 59.1615C64.6598 56.4892 70.8354 45.9811 68.1631 35.6909C65.4908 25.4007 54.9827 19.2252 44.6925 21.8975C34.4024 24.5698 28.2269 35.0779 30.8991 45.3681C33.5714 55.6582 44.0795 61.8337 54.3697 59.1615Z" fill="black" stroke="black" stroke-width="0.4"/>
<path d="M58.2972 41.4693C57.6186 38.8561 54.8843 37.7986 51.5091 37.9571L49.0771 38.0639C47.9992 38.1228 47.0663 37.9508 46.8715 37.2005C46.7035 36.5537 47.3641 35.9402 48.3562 35.6826C49.4444 35.4 50.3654 35.6579 51.0471 36.3095L54.7472 33.7191C53.7376 32.4623 51.8568 31.9289 49.893 31.9969L49.1808 29.2544L44.4761 30.4761L45.1749 33.167C42.7371 34.4353 41.1559 36.503 41.727 38.7022C42.3654 41.1602 44.6113 42.1787 47.8197 42.036L50.2837 41.9209C51.6058 41.8813 52.7003 42.1495 52.9288 43.0291C53.2043 44.09 52.2572 44.9159 50.753 45.3065C49.0568 45.747 47.4841 45.2164 46.5788 44.0982L42.6495 46.8586C43.9855 48.583 46.5753 49.3466 49.334 49.1825L50.0059 51.7698L54.7106 50.5481L54.032 47.9349C57.0139 46.5253 58.9759 44.0825 58.2972 41.4693Z" fill="black"/>
<path d="M77 9C74.6266 9 72.3066 9.70379 70.3332 11.0224C68.3598 12.3409 66.8217 14.2151 65.9135 16.4078C65.0052 18.6005 64.7676 21.0133 65.2306 23.3411C65.6936 25.6689 66.8365 27.8071 68.5147 29.4853C70.193 31.1635 72.3311 32.3064 74.6589 32.7694C76.9867 33.2324 79.3995 32.9948 81.5922 32.0866C83.7849 31.1783 85.6591 29.6402 86.9776 27.6668C88.2962 25.6935 89 23.3734 89 21C88.9908 17.8202 87.7235 14.7734 85.4751 12.5249C83.2266 10.2765 80.1798 9.00923 77 9V9ZM75 26.414L69.586 21L71 19.586L75 23.586L83 15.586L84.414 17L75 26.414Z" fill="#19A074"/>
<path d="M24.5888 81.4894C26.8606 73.6255 35.6694 67.8404 35.6694 67.8404L51.8835 67.9669H64.5859C64.5859 67.9669 65.8475 60.268 66.8688 57.6724C67.8845 55.0713 71.9968 55.1647 71.9968 55.1647L70.8171 63.1441C70.8171 63.1441 74.0774 56.0392 75.257 54.4554C76.4311 52.8716 80.2704 53.0476 80.2704 53.0476L78.3315 58.0628C78.3315 58.0628 80.6853 54.8953 82.7113 54.1089C84.7374 53.3281 87.457 54.3069 87.457 54.3069L73.1272 74.5989L39.8799 84.492L38.2088 89.8811L36.5814 106.445H12.5469C18.6032 93.3346 24.5888 81.4839 24.5888 81.4839V81.4894Z" fill="white"/>
<path d="M37.1221 106.505C37.0893 106.786 36.8629 107.001 36.576 107C36.2897 107 36.0319 106.788 36.0319 106.505L36.0736 105.9L37.652 89.8316C37.6574 89.7931 37.6629 89.7601 37.6738 89.7216L39.345 84.3324C39.3996 84.1564 39.536 84.0189 39.7108 83.9694L72.7778 74.1314L86.5509 54.6258C85.6662 54.4058 84.1151 54.1528 82.8918 54.6258C81.035 55.3407 78.7741 58.3597 78.7522 58.3927C78.5884 58.6127 78.288 58.6732 78.0477 58.5412C77.802 58.4037 77.7038 58.1178 77.8021 57.8593L79.4514 53.5919C78.2172 53.6359 76.333 53.8944 75.6777 54.7798C74.5472 56.2975 71.3306 63.298 71.2978 63.3695C71.1886 63.617 70.9101 63.7435 70.648 63.6665C70.3913 63.5895 70.2274 63.331 70.2656 63.0616L71.3469 55.7421C70.2438 55.8356 68.0104 56.226 67.366 57.8758C66.383 60.3944 65.1269 67.9888 65.116 68.0658C65.0723 68.3298 64.8428 68.5222 64.5752 68.5222H51.8727L35.828 68.3958C34.7249 69.1601 27.1501 74.5933 25.1076 81.6488C25.0967 81.6818 25.0859 81.7093 25.0695 81.7423C25.0149 81.8578 19.2588 93.2576 13.399 105.9L12.9344 106.715C12.623 107.029 12.3115 107.029 12.0828 106.747C11.9845 106.588 11.9738 106.39 12.0503 106.219C17.8554 93.6535 23.666 82.1052 24.081 81.2858C26.4074 73.345 35.0088 67.6204 35.3747 67.3784C35.4621 67.3234 35.5712 67.2904 35.675 67.2904L51.889 67.4224H64.1275C64.4224 65.7011 65.4708 59.751 66.361 57.4689C67.5023 54.5433 71.8223 54.6093 72.008 54.6093C72.1609 54.6148 72.3136 54.6863 72.4119 54.8073C72.5102 54.9283 72.554 55.0877 72.5322 55.2417L71.893 59.575C72.9088 57.4743 74.1594 55.0053 74.8148 54.1199C76.1254 52.3546 79.8663 52.4701 80.2868 52.4921C80.4616 52.4976 80.62 52.5911 80.7183 52.7396C80.8111 52.8881 80.8329 53.075 80.7673 53.24L79.9266 55.4232C80.713 54.6698 81.6304 53.9384 82.5097 53.5974C84.6996 52.7505 87.5173 53.7459 87.6375 53.7899C87.8013 53.8449 87.927 53.9769 87.9761 54.1418C88.0253 54.3068 87.9979 54.4828 87.8996 54.6258L73.5698 74.9178C73.4988 75.0168 73.3949 75.0938 73.2802 75.1268L40.3116 84.9373L38.7442 89.9966L37.1221 106.505Z" fill="#080717"/>
<path d="M36.0644 77.5574C36.2992 77.5574 36.5177 77.4034 36.5887 77.1614C36.6924 76.8205 39.1609 68.9951 50.2961 68.7147C61.8519 68.4232 64.7189 68.3957 64.7462 68.3957C65.0466 68.3957 65.2925 68.1428 65.287 67.8403C65.287 67.5379 65.0413 67.2959 64.7409 67.2959C64.7136 67.2959 61.8464 67.3234 50.2743 67.6148C44.0431 67.7688 40.3787 70.2545 38.3963 72.3112C36.2337 74.5548 35.5731 76.7545 35.5458 76.848C35.4584 77.1394 35.6276 77.4474 35.9116 77.5299C35.9608 77.5464 36.0153 77.5519 36.0644 77.5519V77.5574Z" fill="#080717"/>
<path d="M68.7538 75.9903C69.0214 75.9903 69.2564 75.7869 69.2946 75.5119C69.453 74.2856 72.5493 55.4893 72.5766 55.3024C72.6258 55.0054 72.4238 54.7195 72.1289 54.67C71.834 54.6205 71.5501 54.824 71.5009 55.1209C71.3753 55.8963 68.3717 74.1261 68.2133 75.3689C68.1751 75.6714 68.388 75.9464 68.6829 75.9849C68.7047 75.9849 68.732 75.9849 68.7538 75.9849V75.9903Z" fill="#080717"/>
<path d="M71.4795 75.6275C71.6925 75.6275 71.9001 75.4956 71.9875 75.2866L80.8343 53.4053C80.949 53.1248 80.8126 52.8004 80.5341 52.6904C80.2555 52.5749 79.9386 52.7124 79.824 52.9928L70.9771 74.8741C70.8624 75.1546 70.9988 75.479 71.2773 75.589C71.3429 75.6165 71.4138 75.6275 71.4848 75.6275H71.4795Z" fill="#080717"/>
</g>
<defs>
<clipPath id="clip0_533_216766">
<rect width="100" height="100" fill="white"/>
</clipPath>
</defs>
</svg>
