<svg width="100" height="100" viewBox="0 0 100 100" fill="none" xmlns="http://www.w3.org/2000/svg">
<g clip-path="url(#clip0_533_216760)">
<rect width="100" height="100" fill="white"/>
<ellipse cx="49.8131" cy="41" rx="26.8131" ry="27" stroke="black" stroke-linecap="square" stroke-dasharray="4 6"/>
<path fill-rule="evenodd" clip-rule="evenodd" d="M49.5271 59.5494C59.8586 59.5494 68.2339 51.1157 68.2339 40.7122C68.2339 30.3087 59.8586 21.875 49.5271 21.875C39.1956 21.875 30.8203 30.3087 30.8203 40.7122C30.8203 51.1157 39.1956 59.5494 49.5271 59.5494ZM51.0452 38.8113C54.0378 38.6699 56.4623 39.614 57.064 41.9472C57.6657 44.2804 55.9261 46.4615 53.2821 47.7201L53.8838 50.0533L49.7123 51.1441L49.1166 48.834C46.6704 48.9805 44.3742 48.2987 43.1896 46.7591L46.6736 44.2945C47.4763 45.2929 48.8707 45.7666 50.3747 45.3733C51.7085 45.0245 52.5482 44.2871 52.3039 43.34C52.1014 42.5545 51.1309 42.3151 49.9587 42.3504L47.7739 42.4532C44.9291 42.5807 42.9377 41.6712 42.3717 39.4766C41.8653 37.5131 43.2672 35.6669 45.4288 34.5345L44.8092 32.132L48.9807 31.0411L49.6122 33.4898C51.3534 33.4291 53.0211 33.9053 53.9163 35.0275L50.6355 37.3403C50.0311 36.7586 49.2144 36.5283 48.2496 36.7806C47.3699 37.0106 46.7842 37.5583 46.9331 38.1359C47.1059 38.8058 47.933 38.9594 48.8888 38.9067L51.0452 38.8113Z" fill="black"/>
<path d="M86.6212 11.7107L82.2191 14.391L77.8169 17.0712" stroke="black" stroke-linecap="round"/>
<path d="M81.1873 22.515L87.7461 22.7242" stroke="black" stroke-linecap="round"/>
<path d="M74.3457 12.6533L76.3556 6.99997" stroke="black" stroke-linecap="round"/>
<path d="M24.5888 81.4894C26.8606 73.6255 35.6694 67.8404 35.6694 67.8404L51.8835 67.9669H64.5859C64.5859 67.9669 65.8475 60.268 66.8688 57.6724C67.8845 55.0713 71.9968 55.1647 71.9968 55.1647L70.8171 63.1441C70.8171 63.1441 74.0774 56.0392 75.257 54.4554C76.4311 52.8716 80.2704 53.0476 80.2704 53.0476L78.3315 58.0628C78.3315 58.0628 80.6853 54.8953 82.7113 54.1089C84.7374 53.3281 87.457 54.3069 87.457 54.3069L73.1272 74.5989L39.8799 84.492L38.2088 89.8811L36.5814 106.445H12.5469C18.6032 93.3346 24.5888 81.4839 24.5888 81.4839V81.4894Z" fill="white"/>
<path d="M37.1221 106.505C37.0893 106.786 36.8629 107.001 36.576 107C36.2897 107 36.0319 106.788 36.0319 106.505L36.0736 105.9L37.652 89.8316C37.6574 89.7931 37.6629 89.7601 37.6738 89.7216L39.345 84.3324C39.3996 84.1564 39.536 84.0189 39.7108 83.9694L72.7778 74.1314L86.5509 54.6258C85.6662 54.4058 84.1151 54.1528 82.8918 54.6258C81.035 55.3407 78.7741 58.3597 78.7522 58.3927C78.5884 58.6127 78.288 58.6732 78.0477 58.5412C77.802 58.4037 77.7038 58.1178 77.8021 57.8593L79.4514 53.5919C78.2172 53.6359 76.333 53.8944 75.6777 54.7798C74.5472 56.2975 71.3306 63.298 71.2978 63.3695C71.1886 63.617 70.9101 63.7435 70.648 63.6665C70.3913 63.5895 70.2274 63.331 70.2656 63.0616L71.3469 55.7421C70.2438 55.8356 68.0104 56.226 67.366 57.8758C66.383 60.3944 65.1269 67.9888 65.116 68.0658C65.0723 68.3298 64.8428 68.5222 64.5752 68.5222H51.8727L35.828 68.3958C34.7249 69.1601 27.1501 74.5933 25.1076 81.6488C25.0967 81.6818 25.0859 81.7093 25.0695 81.7423C25.0149 81.8578 19.2588 93.2576 13.399 105.9L12.9344 106.715C12.623 107.029 12.3115 107.029 12.0828 106.747C11.9845 106.588 11.9738 106.39 12.0503 106.219C17.8554 93.6535 23.666 82.1052 24.081 81.2858C26.4074 73.345 35.0088 67.6204 35.3747 67.3784C35.4621 67.3234 35.5712 67.2904 35.675 67.2904L51.889 67.4224H64.1275C64.4224 65.7011 65.4708 59.751 66.361 57.4689C67.5023 54.5433 71.8223 54.6093 72.008 54.6093C72.1609 54.6148 72.3136 54.6863 72.4119 54.8073C72.5102 54.9283 72.554 55.0877 72.5322 55.2417L71.893 59.575C72.9088 57.4743 74.1594 55.0053 74.8148 54.1199C76.1254 52.3546 79.8663 52.4701 80.2868 52.4921C80.4616 52.4976 80.62 52.5911 80.7183 52.7396C80.8111 52.8881 80.8329 53.075 80.7673 53.24L79.9266 55.4232C80.713 54.6698 81.6304 53.9384 82.5097 53.5974C84.6996 52.7505 87.5173 53.7459 87.6375 53.7899C87.8013 53.8449 87.927 53.9769 87.9761 54.1418C88.0253 54.3068 87.9979 54.4828 87.8996 54.6258L73.5698 74.9178C73.4988 75.0168 73.3949 75.0938 73.2802 75.1268L40.3116 84.9373L38.7442 89.9966L37.1221 106.505Z" fill="#080717"/>
<path d="M36.0644 77.5574C36.2992 77.5574 36.5177 77.4034 36.5887 77.1614C36.6924 76.8205 39.1609 68.9951 50.2961 68.7147C61.8519 68.4232 64.7189 68.3957 64.7462 68.3957C65.0466 68.3957 65.2925 68.1428 65.287 67.8403C65.287 67.5379 65.0413 67.2959 64.7409 67.2959C64.7136 67.2959 61.8464 67.3234 50.2743 67.6148C44.0431 67.7688 40.3787 70.2545 38.3963 72.3112C36.2337 74.5548 35.5731 76.7545 35.5458 76.848C35.4584 77.1394 35.6276 77.4474 35.9116 77.5299C35.9608 77.5464 36.0153 77.5519 36.0644 77.5519V77.5574Z" fill="#080717"/>
<path d="M68.7538 75.9903C69.0214 75.9903 69.2564 75.7869 69.2946 75.5119C69.453 74.2856 72.5493 55.4893 72.5766 55.3024C72.6258 55.0054 72.4238 54.7195 72.1289 54.67C71.834 54.6205 71.5501 54.824 71.5009 55.1209C71.3753 55.8963 68.3717 74.1261 68.2133 75.3689C68.1751 75.6714 68.388 75.9464 68.6829 75.9849C68.7047 75.9849 68.732 75.9849 68.7538 75.9849V75.9903Z" fill="#080717"/>
<path d="M71.4795 75.6275C71.6925 75.6275 71.9001 75.4956 71.9875 75.2866L80.8343 53.4053C80.949 53.1248 80.8126 52.8004 80.5341 52.6904C80.2555 52.5749 79.9386 52.7124 79.824 52.9928L70.9771 74.8741C70.8624 75.1546 70.9988 75.479 71.2773 75.589C71.3429 75.6165 71.4138 75.6275 71.4848 75.6275H71.4795Z" fill="#080717"/>
</g>
<defs>
<clipPath id="clip0_533_216760">
<rect width="100" height="100" fill="white"/>
</clipPath>
</defs>
</svg>
