<svg width="115" height="84" viewBox="0 0 115 84" fill="none" xmlns="http://www.w3.org/2000/svg">
  <path fill-rule="evenodd" clip-rule="evenodd" d="M34.4637 81.4922C31.6053 81.6445 28.2677 81.7024 24.7043 81.6402C14.1563 81.4561 5.62327 80.2894 5.64518 79.0343C5.66709 77.7793 14.229 76.1992 24.777 76.3833C29.5848 76.4673 33.9753 76.9032 37.3281 77.4717C39.5052 77.4062 41.8786 77.3908 44.3621 77.4341L44.4814 77.4362C54.9448 77.6188 63.516 77.7684 63.4942 79.0217C63.4722 80.2797 54.8 82.1734 44.2826 81.9898C40.6882 81.927 37.3285 81.7492 34.4637 81.4922Z" fill="#EDEDED"/>
  <path fill-rule="evenodd" clip-rule="evenodd" d="M106.238 83.5645C111.077 83.5645 115 82.3876 115 80.9358C115 79.484 111.077 78.3071 106.238 78.3071C101.399 78.3071 97.4756 79.484 97.4756 80.9358C97.4756 82.3876 101.399 83.5645 106.238 83.5645Z" fill="#EDEDED"/>
  <path fill-rule="evenodd" clip-rule="evenodd" d="M14.1798 77.5061C17.2092 78.15 20.1864 76.2192 20.8295 73.1936C21.4726 70.1679 19.5382 67.1932 16.5087 66.5492C13.4793 65.9053 10.5021 67.8361 9.85896 70.8617C9.21584 73.8874 11.1503 76.8622 14.1798 77.5061Z" fill="#9B9B9B"/>
  <path fill-rule="evenodd" clip-rule="evenodd" d="M14.4762 76.1075C16.7321 76.587 18.9381 75.2014 19.4034 73.0126C19.8686 70.8238 18.4169 68.6608 16.161 68.1812C13.905 67.7017 11.699 69.0873 11.2338 71.2761C10.7685 73.4649 12.2202 75.6279 14.4762 76.1075Z" fill="#EFEFEF"/>
  <path fill-rule="evenodd" clip-rule="evenodd" d="M14.4385 65.3784L19.1068 66.3707L17.1615 72.6252C17.1615 72.6252 16.4675 74.3674 15.0278 74.0312C13.5881 73.695 13.6281 71.9092 13.6281 71.9092L14.4385 65.3784Z" fill="#DADADA"/>
  <path fill-rule="evenodd" clip-rule="evenodd" d="M15.1872 73.3347C15.8317 73.4717 16.4652 73.0609 16.602 72.4171C16.7389 71.7734 16.3273 71.1404 15.6827 71.0034C15.0381 70.8664 14.4047 71.2772 14.2679 71.921C14.131 72.5647 14.5426 73.1977 15.1872 73.3347Z" fill="#5A6274"/>
  <path fill-rule="evenodd" clip-rule="evenodd" d="M46.8389 71.9609L51.6385 72.9811L49.6652 79.2857C49.6652 79.2857 48.9593 81.0412 47.4789 80.6962C45.9986 80.3511 46.0326 78.5489 46.0326 78.5489L46.8389 71.9609Z" fill="#DADADA"/>
  <path fill-rule="evenodd" clip-rule="evenodd" d="M47.5173 23.1769L32.7196 48.4118L55.704 57.9389L62.9681 30.6458L47.5173 23.1769Z" fill="#9B9B9B"/>
  <path fill-rule="evenodd" clip-rule="evenodd" d="M44.9177 23.7291L30.176 48.7004L53.1696 58.1844L60.3768 31.1592L44.9177 23.7291Z" fill="#5A6274"/>
  <path fill-rule="evenodd" clip-rule="evenodd" d="M52.9787 23.3955C51.5968 24.1821 49.9716 25.6477 48.2097 27.8947L47.9339 27.6784C49.7113 25.4117 51.3694 23.9083 52.8054 23.0909C54.2367 22.2762 55.4845 22.1246 56.4023 22.6422C57.3191 23.1593 57.8309 24.3017 57.8915 25.8956C57.9524 27.4953 57.5627 29.5908 56.629 32.0879L56.3008 31.9651C57.2249 29.4936 57.5998 27.4464 57.5413 25.9089C57.4826 24.3657 56.9911 23.3767 56.2301 22.9475C55.47 22.5188 54.3653 22.6063 52.9787 23.3955Z" fill="#292929"/>
  <path fill-rule="evenodd" clip-rule="evenodd" d="M97.9176 34.8641L80.7659 46.8328L92.5603 59.7918L105.522 44.2649L97.9176 34.8641Z" fill="#5A6274"/>
  <path fill-rule="evenodd" clip-rule="evenodd" d="M96.566 34.0699L79.4144 46.0386L91.2087 58.9976L104.17 43.4707L96.566 34.0699Z" fill="#9B9B9B"/>
  <path fill-rule="evenodd" clip-rule="evenodd" d="M101.712 37.062C100.58 37.1703 99.0749 37.6532 97.2338 38.6134L97.0717 38.3026C98.9344 37.3312 100.484 36.8274 101.679 36.7131C102.867 36.5993 103.747 36.8696 104.196 37.5082C104.643 38.1445 104.609 39.0724 104.148 40.1484C103.684 41.2309 102.772 42.5048 101.384 43.8803L101.137 43.6313C102.506 42.2745 103.385 41.0371 103.826 40.0103C104.269 38.9771 104.252 38.1977 103.909 37.7097C103.568 37.2241 102.85 36.953 101.712 37.062Z" fill="#292929"/>
  <path fill-rule="evenodd" clip-rule="evenodd" d="M12.4744 8.93667L14.3694 7.71515C14.3694 7.71515 16.832 10.0651 17.7662 11.6955C18.7003 13.326 19.0575 16.0405 19.0575 16.0405C19.0575 16.0405 18.8039 18.6211 18.5348 21.3972C18.8018 21.3799 19.0771 21.4066 19.3519 21.483L67.9328 35.0017C69.4267 35.4174 70.1651 37.0974 69.4612 38.4791L58.5412 59.9126C58.0509 60.875 56.9889 61.4035 55.9256 61.2144L15.3795 54.0047C15.212 53.9749 15.0512 53.9287 14.8987 53.8679L11.4403 58.7825C11.4403 58.7825 10.4853 59.9519 10.7296 61.1684C10.9739 62.385 11.5185 62.9092 12.5446 63.2918C12.9619 63.4473 19.2898 64.7648 26.7622 66.3207C37.6658 68.5909 51.006 71.3686 51.9749 71.7836C53.6078 72.4831 54.8487 73.8335 55.6055 75.2144C55.7282 75.4383 55.8307 75.6173 55.9169 75.7679C56.3627 76.5463 56.373 76.5645 56.483 78.0816C56.6142 79.8921 55.0386 79.5618 54.788 78.9124C54.6975 78.6777 54.6559 78.4535 54.61 78.2065C54.529 77.77 54.4348 77.2624 54.034 76.5006C53.4064 75.3075 52.6929 74.4215 51.5131 73.694C50.7893 73.2477 36.3704 70.245 25.0965 67.8972C17.9952 66.4183 12.1417 65.1993 11.7449 65.0428C10.7181 64.6378 9.41393 63.7863 8.82057 62.2462C8.22721 60.7061 9.22936 58.3125 9.22936 58.3125L13.4314 52.1961C13.3614 51.9222 13.3379 51.6319 13.3688 51.3354L16.0029 26.0063L15.9326 25.9977L16.8527 17.192C16.8527 17.192 16.8343 14.2131 15.9175 12.7779C15.0007 11.3426 12.4744 8.93667 12.4744 8.93667Z" fill="#D6D6D6"/>
  <path fill-rule="evenodd" clip-rule="evenodd" d="M1.73052 1.95863C2.35444 0.876122 3.73837 0.505302 4.81996 1.13081L14.0604 6.47483C15.1398 7.09905 15.5097 8.47949 14.887 9.55975C14.2631 10.6423 12.8792 11.0131 11.7976 10.3876L2.55712 5.04355C1.47777 4.41933 1.10788 3.03889 1.73052 1.95863Z" fill="#9B9B9B"/>
  <path fill-rule="evenodd" clip-rule="evenodd" d="M36.4264 34.4914C36.5557 34.8946 36.3335 35.3263 35.9303 35.4555L33.2948 36.3002C32.8916 36.4294 32.4599 36.2073 32.3307 35.8041C32.2014 35.4008 32.4236 34.9692 32.8268 34.84L35.4623 33.9953C35.8655 33.866 36.2972 34.0881 36.4264 34.4914Z" fill="#5A6274"/>
  <path fill-rule="evenodd" clip-rule="evenodd" d="M47.4442 36.7371C47.8452 36.6012 48.2805 36.8161 48.4164 37.2172L49.305 39.8397C49.4409 40.2407 49.2259 40.676 48.8249 40.8119C48.4239 40.9478 47.9886 40.7328 47.8527 40.3318L46.9641 37.7092C46.8282 37.3082 47.0432 36.8729 47.4442 36.7371Z" fill="#5A6274"/>
  <path fill-rule="evenodd" clip-rule="evenodd" d="M39.4682 49.9755C38.9203 49.6883 38.2564 49.4172 37.6546 49.3543C37.0181 49.2878 36.4402 49.3684 36.0177 49.4685C35.8079 49.5182 35.6408 49.5717 35.5294 49.6113C35.4738 49.6311 35.4325 49.6473 35.4071 49.6576C35.3944 49.6627 35.3858 49.6664 35.3813 49.6683L35.3781 49.6697C34.9929 49.8422 34.5405 49.6708 34.3663 49.286C34.1918 48.9002 34.363 48.446 34.7488 48.2714L35.0649 48.9699C34.7488 48.2714 34.749 48.2713 34.7492 48.2712L34.7506 48.2706L34.7529 48.2696L34.7587 48.267L34.7756 48.2596C34.7892 48.2538 34.8073 48.2462 34.8298 48.237C34.8748 48.2187 34.9373 48.1944 35.0156 48.1666C35.1719 48.111 35.3928 48.0407 35.6642 47.9764C36.2039 47.8486 36.9608 47.7401 37.814 47.8292C38.702 47.922 39.5693 48.2972 40.1801 48.6174C40.4931 48.7815 40.7554 48.94 40.9404 49.0582C41.0332 49.1174 41.1071 49.1669 41.159 49.2024C41.185 49.2202 41.2055 49.2344 41.2201 49.2447L41.2376 49.2571L41.2429 49.2609L41.2454 49.2627L41.2457 49.2629C41.2458 49.263 41.246 49.2631 40.7968 49.8844L41.2457 49.2629C41.5889 49.511 41.6662 49.9905 41.4181 50.3336C41.1702 50.6766 40.6914 50.7537 40.3483 50.5063C40.3483 50.5063 40.3483 50.5063 40.3483 50.5063C40.3482 50.5062 40.348 50.5061 40.348 50.506C40.348 50.506 40.348 50.5061 40.348 50.506C40.3479 50.506 40.3476 50.5058 40.3476 50.5058L40.3374 50.4985C40.3282 50.4921 40.3135 50.4818 40.2935 50.4682C40.2536 50.4409 40.1931 50.4003 40.1151 50.3505C39.9586 50.2506 39.7347 50.1152 39.4682 49.9755Z" fill="#5A6274"/>
  <path fill-rule="evenodd" clip-rule="evenodd" d="M34.4009 41.65C35.1425 41.8076 35.9036 41.1831 36.1008 40.2552C36.2981 39.3272 35.8568 38.4472 35.1152 38.2896C34.3736 38.1319 33.6126 38.7564 33.4153 39.6843C33.2181 40.6123 33.6594 41.4923 34.4009 41.65Z" fill="#5A6274"/>
  <path fill-rule="evenodd" clip-rule="evenodd" d="M43.1564 44.1274C43.8129 44.5067 44.7294 44.1482 45.2035 43.3265C45.6775 42.5049 45.5296 41.5313 44.8731 41.152C44.2165 40.7727 43.3 41.1313 42.826 41.9529C42.352 42.7745 42.4999 43.7481 43.1564 44.1274Z" fill="#5A6274"/>
  <path fill-rule="evenodd" clip-rule="evenodd" d="M106.116 81.5405C109.601 81.5405 112.425 78.7379 112.425 75.2807C112.425 71.8236 109.601 69.021 106.116 69.021C102.632 69.021 99.8076 71.8236 99.8076 75.2807C99.8076 78.7379 102.632 81.5405 106.116 81.5405Z" fill="#9B9B9B"/>
  <path fill-rule="evenodd" clip-rule="evenodd" d="M106.117 79.9424C108.712 79.9424 110.815 77.915 110.815 75.4141C110.815 72.9131 108.712 70.8857 106.117 70.8857C103.522 70.8857 101.419 72.9131 101.419 75.4141C101.419 77.915 103.522 79.9424 106.117 79.9424Z" fill="#EFEFEF"/>
  <path fill-rule="evenodd" clip-rule="evenodd" d="M106.251 76.7457C106.993 76.7457 107.594 76.1495 107.594 75.4139C107.594 74.6783 106.993 74.082 106.251 74.082C105.51 74.082 104.909 74.6783 104.909 75.4139C104.909 76.1495 105.51 76.7457 106.251 76.7457Z" fill="#5A6274"/>
</svg>
