<svg width="13" height="14" viewBox="0 0 13 14" fill="none" xmlns="http://www.w3.org/2000/svg">
<path d="M6.32393 9.03952V8.30774C6.73716 8.2465 7.06037 8.10764 7.29356 7.89117C7.52676 7.6747 7.64336 7.42285 7.64336 7.13564C7.64336 6.78717 7.55636 6.50153 7.38237 6.27873C7.20838 6.05592 6.9329 5.86743 6.55592 5.71326L6.22243 5.57705C5.94936 5.463 5.76571 5.37219 5.67146 5.30461C5.57722 5.23703 5.50472 5.15466 5.45397 5.05752C5.40323 4.96037 5.37785 4.85266 5.37785 4.73439C5.37785 4.54221 5.44854 4.38487 5.58991 4.26238C5.73127 4.13989 5.9252 4.07865 6.17169 4.07865C6.34084 4.07865 6.5245 4.10716 6.72266 4.16418C6.92081 4.2212 7.06822 4.28033 7.16488 4.34158L7.37875 3.79037C7.19509 3.64465 6.84348 3.56228 6.32393 3.54328V3.05859H5.82008V3.56545C5.46485 3.62247 5.18151 3.75975 4.97006 3.97727C4.75862 4.1948 4.65289 4.45034 4.65289 4.7439C4.65289 5.02901 4.72479 5.27293 4.86857 5.47567C5.01235 5.67842 5.26549 5.85371 5.62797 6.00154L6.05569 6.17577C6.36018 6.30037 6.55531 6.39383 6.6411 6.45613C6.72689 6.51843 6.79455 6.60027 6.84409 6.70164C6.89363 6.80301 6.9184 6.91916 6.9184 7.0501C6.9184 7.25918 6.83261 7.4313 6.66104 7.56646C6.48946 7.70163 6.26231 7.76921 5.97957 7.76921C5.81766 7.76921 5.6334 7.73859 5.42679 7.67734C5.22018 7.61609 5.05404 7.54535 4.92838 7.46509L4.66739 8.04798C4.76164 8.10289 4.93563 8.16308 5.18936 8.22855C5.4431 8.29402 5.65334 8.33098 5.82008 8.33942V9.03952H6.32393Z" fill="white" stroke="white" stroke-width="0.545455"/>
<path fill-rule="evenodd" clip-rule="evenodd" d="M7.43251 11.7845C6.96778 11.9004 6.48154 11.9619 5.98093 11.9619C2.67775 11.9619 0 9.2841 0 5.98093C0 2.67775 2.67775 0 5.98093 0C9.13306 0 11.7157 2.43847 11.9453 5.53193C11.5827 5.36774 11.1908 5.25694 10.7795 5.20954C10.41 2.8923 8.40225 1.12142 5.98093 1.12142C3.2971 1.12142 1.12142 3.2971 1.12142 5.98093C1.12142 8.66476 3.2971 10.8404 5.98093 10.8404C6.24519 10.8404 6.50453 10.8193 6.75734 10.7787C6.93008 11.149 7.15876 11.4878 7.43251 11.7845Z" fill="white"/>
<path fill-rule="evenodd" clip-rule="evenodd" d="M11.3643 6.47949L11.3634 9.74091L12.9587 9.7412L10.1818 13.0734L7.40497 9.7412L8.94335 9.74091L8.94348 6.47949H11.3643Z" fill="white"/>
</svg>
