<svg width="48" height="48" viewBox="0 0 48 48" fill="none" xmlns="http://www.w3.org/2000/svg">
<mask id="path-1-inside-1_607_242033" fill="white">
<path fill-rule="evenodd" clip-rule="evenodd" d="M23.2833 15.0111C20.8061 14.2728 19 11.9775 19 9.26031C19 8.5623 19.1192 7.89213 19.3383 7.26904C10.6273 8.7691 4 16.3606 4 25.4999C4 35.7172 12.2827 43.9999 22.5 43.9999C32.3912 43.9999 40.4693 36.2375 40.9749 26.4721C40.0981 26.9736 39.0825 27.2603 38 27.2603C36.5952 27.2603 35.3031 26.7775 34.2807 25.9688C33.5523 26.159 32.788 26.2603 32 26.2603C27.0294 26.2603 23 22.2309 23 17.2603C23 16.4837 23.0984 15.73 23.2833 15.0111Z"/>
</mask>
<path d="M23.2833 15.0111L25.2202 15.5095C25.4881 14.4683 24.8849 13.4016 23.8546 13.0945L23.2833 15.0111ZM19.3383 7.26904L21.225 7.9326C21.4604 7.26356 21.3237 6.51993 20.866 5.97821C20.4083 5.43649 19.6979 5.1777 18.9989 5.29805L19.3383 7.26904ZM40.9749 26.4721L42.9722 26.5755C43.01 25.8448 42.6459 25.1519 42.0228 24.7685C41.3996 24.3852 40.6169 24.3728 39.9818 24.736L40.9749 26.4721ZM34.2807 25.9688L35.5215 24.4002C35.0292 24.0108 34.3826 23.8751 33.7753 24.0337L34.2807 25.9688ZM17 9.26031C17 12.8861 19.4105 15.9437 22.712 16.9278L23.8546 13.0945C22.2017 12.6018 21 11.0688 21 9.26031H17ZM17.4516 6.60548C17.1585 7.43883 17 8.33321 17 9.26031H21C21 8.7914 21.0799 8.34544 21.225 7.9326L17.4516 6.60548ZM6 25.4999C6 17.3506 11.9099 10.5777 19.6777 9.24003L18.9989 5.29805C9.3447 6.96052 2 15.3705 2 25.4999H6ZM22.5 41.9999C13.3873 41.9999 6 34.6126 6 25.4999H2C2 36.8218 11.1782 45.9999 22.5 45.9999V41.9999ZM38.9776 26.3687C38.5268 35.0766 31.3213 41.9999 22.5 41.9999V45.9999C33.4611 45.9999 42.4119 37.3983 42.9722 26.5755L38.9776 26.3687ZM38 29.2603C39.44 29.2603 40.7968 28.8781 41.968 28.2081L39.9818 24.736C39.3994 25.0692 38.725 25.2603 38 25.2603V29.2603ZM33.04 27.5374C34.4029 28.6155 36.1289 29.2603 38 29.2603V25.2603C37.0614 25.2603 36.2033 24.9395 35.5215 24.4002L33.04 27.5374ZM32 28.2603C32.96 28.2603 33.8941 28.1369 34.7861 27.9039L33.7753 24.0337C33.2105 24.1812 32.616 24.2603 32 24.2603V28.2603ZM21 17.2603C21 23.3354 25.9249 28.2603 32 28.2603V24.2603C28.134 24.2603 25 21.1263 25 17.2603H21ZM21.3464 14.5128C21.1199 15.3931 21 16.3142 21 17.2603H25C25 16.6532 25.0768 16.0669 25.2202 15.5095L21.3464 14.5128Z" fill="#6A717F" mask="url(#path-1-inside-1_607_242033)"/>
<circle cx="33" cy="22" r="1" stroke="#6A717F" stroke-width="2"/>
<circle cx="26" cy="9" r="4" stroke="#6A717F" stroke-width="2"/>
<circle cx="38" cy="15" r="2" stroke="#6A717F" stroke-width="2"/>
<circle cx="14" cy="20" r="3" fill="#DEE0E3" stroke="#6A717F" stroke-width="2"/>
<circle cx="22" cy="36" r="3" fill="#DEE0E3" stroke="#6A717F" stroke-width="2"/>
<circle cx="32" cy="33" r="1" fill="#6A717F" stroke="#6A717F" stroke-width="2"/>
<circle cx="12" cy="31" r="1" fill="#6A717F" stroke="#6A717F" stroke-width="2"/>
</svg>
