<svg width="48" height="48" viewBox="0 0 48 48" fill="none" xmlns="http://www.w3.org/2000/svg">
<path d="M24 7.09152L38.9949 13.6518C38.883 20.7535 36.9545 27.5714 34.1268 32.6376C32.67 35.2477 30.9936 37.3589 29.2386 38.8068C27.4824 40.2557 25.7 41 24 41C22.3 41 20.5176 40.2557 18.7614 38.8068C17.0064 37.3589 15.33 35.2477 13.8732 32.6376C11.0455 27.5714 9.11702 20.7535 9.00514 13.6518L24 7.09152Z" stroke="#6A717F" stroke-width="2"/>
<mask id="path-2-inside-1_784_271115" fill="white">
<rect x="17" y="20" width="14" height="12" rx="1.46667"/>
</mask>
<rect x="17" y="20" width="14" height="12" rx="1.46667" fill="#DEE0E3" stroke="#6A717F" stroke-width="4" mask="url(#path-2-inside-1_784_271115)"/>
<mask id="path-3-inside-2_784_271115" fill="white">
<path fill-rule="evenodd" clip-rule="evenodd" d="M25 26.7324C25.5978 26.3866 26 25.7403 26 25C26 23.8954 25.1046 23 24 23C22.8954 23 22 23.8954 22 25C22 25.7403 22.4022 26.3866 23 26.7324V28C23 28.5523 23.4477 29 24 29C24.5523 29 25 28.5523 25 28V26.7324Z"/>
</mask>
<path fill-rule="evenodd" clip-rule="evenodd" d="M25 26.7324C25.5978 26.3866 26 25.7403 26 25C26 23.8954 25.1046 23 24 23C22.8954 23 22 23.8954 22 25C22 25.7403 22.4022 26.3866 23 26.7324V28C23 28.5523 23.4477 29 24 29C24.5523 29 25 28.5523 25 28V26.7324Z" fill="#DEE0E3"/>
<path d="M25 26.7324L23.9985 25.0012L23 25.5789V26.7324H25ZM23 26.7324H25V25.5789L24.0015 25.0012L23 26.7324ZM24 25C24 25.0032 23.9997 25.0031 24.0002 25.0012C24.0006 24.9997 24.0011 24.9987 24.0012 24.9985C24.0012 24.9985 24.0008 24.9992 24 25C23.9991 25.0009 23.9985 25.0013 23.9985 25.0012L26.0015 28.4636C27.1918 27.775 28 26.4831 28 25H24ZM24 25H28C28 22.7909 26.2091 21 24 21V25ZM24 25V21C21.7909 21 20 22.7909 20 25H24ZM24.0015 25.0012C24.0015 25.0013 24.0009 25.0009 24 25C23.9992 24.9992 23.9988 24.9985 23.9988 24.9985C23.9989 24.9987 23.9994 24.9997 23.9998 25.0012C24.0003 25.0031 24 25.0032 24 25H20C20 26.4831 20.8082 27.775 21.9985 28.4636L24.0015 25.0012ZM25 28V26.7324H21V28H25ZM24 27C24.5523 27 25 27.4477 25 28H21C21 29.6569 22.3431 31 24 31V27ZM23 28C23 27.4477 23.4477 27 24 27V31C25.6569 31 27 29.6569 27 28H23ZM23 26.7324V28H27V26.7324H23Z" fill="#6A717F" mask="url(#path-3-inside-2_784_271115)"/>
<path d="M27 18V21H21V18C21 16.3431 22.3431 15 24 15C25.6569 15 27 16.3431 27 18Z" stroke="#6A717F" stroke-width="2"/>
</svg>
