<svg xmlns="http://www.w3.org/2000/svg" width="72" height="72" fill="none" viewBox="0 0 72 72">
  <path fill="#A3A3A3" fill-rule="evenodd" d="M1.473 28.996l11.092-9.998h40.953l10.239 9.998.853 17.497-63.6.613.463-18.11z" clip-rule="evenodd"/>
  <path fill="#BFBFBF" fill-rule="evenodd" d="M12.757 18.998h41.115l7.71 34.994H5.047l7.709-34.994z" clip-rule="evenodd"/>
  <path fill="#D6D6D6" fill-rule="evenodd" d="M1.704 28.996h62.21L65.62 63.99H0l1.704-34.994z" clip-rule="evenodd"/>
  <path fill="#fff" fill-rule="evenodd" d="M24.229 39.208c1.115 0 2.02-.896 2.02-2 0-1.105-.905-2-2.02-2s-2.019.895-2.019 2c0 1.104.904 2 2.019 2zM42.4 39.208c1.115 0 2.019-.896 2.019-2 0-1.105-.904-2-2.02-2-1.114 0-2.018.895-2.018 2 0 1.104.904 2 2.019 2z" clip-rule="evenodd"/>
  <path stroke="#fff" stroke-width="2" d="M24.229 37.207s2.472-12.21 9.676-12.21c7.203 0 8.495 12.21 8.495 12.21"/>
  <rect width="1.61" height="9.683" fill="#BFBFBF" rx=".805" transform="matrix(.83153 -.55549 .5629 .82652 60.063 57.243)"/>
  <rect width="4.026" height="12.781" fill="#BFBFBF" rx="2.013" transform="matrix(.83153 -.55549 .5629 .82652 61.457 61.436)"/>
  <path fill="#A3A3A3" fill-rule="evenodd" d="M68.782 71.18c.243-1.482-.18-3.795-1.234-6.181-1.028-2.323-2.405-4.151-3.636-4.993.761-.13 1.565.18 2.026.857l4.928 7.237c.626.918.384 2.164-.54 2.782-.471.314-1.028.405-1.544.297z" clip-rule="evenodd"/>
  <path fill="#fff" fill-rule="evenodd" d="M60.86 57.869c4.9-3.273 6.285-9.724 3.094-14.41-3.19-4.685-9.75-5.83-14.649-2.556-4.9 3.273-6.285 9.724-3.094 14.41 3.19 4.684 9.75 5.829 14.649 2.556z" clip-rule="evenodd" opacity=".431"/>
  <path fill="#fff" fill-rule="evenodd" d="M56.316 42.972c3.19 4.685 1.806 11.137-3.094 14.41-.925.617-1.908 1.078-2.917 1.387 3.258 1.502 7.278 1.29 10.556-.9 4.9-3.273 6.285-9.725 3.094-14.41-2.588-3.8-7.394-5.271-11.731-3.943 1.611.743 3.036 1.906 4.092 3.456z" clip-rule="evenodd" opacity=".451"/>
  <path fill="#D6D6D6" fill-rule="evenodd" d="M65.185 42.404c3.612 5.304 2.044 12.608-3.503 16.313-5.547 3.706-12.972 2.41-16.584-2.894s-2.044-12.608 3.503-16.313c5.547-3.705 12.971-2.41 16.584 2.894zM62.84 43.97c2.77 4.066 1.567 9.666-2.685 12.507-4.253 2.84-9.945 1.847-12.715-2.22-2.769-4.066-1.567-9.665 2.686-12.506 4.252-2.84 9.945-1.847 12.714 2.22z" clip-rule="evenodd"/>
  <path fill="#A3A3A3" fill-rule="evenodd" d="M65.185 42.404c3.612 5.304 2.044 12.608-3.503 16.313-5.547 3.706-12.972 2.41-16.584-2.894s-2.044-12.608 3.503-16.313c5.547-3.705 12.971-2.41 16.584 2.894zm-1.674 1.119c3.01 4.42 1.703 10.506-2.919 13.594-4.622 3.088-10.81 2.008-13.82-2.412s-1.703-10.506 2.92-13.594c4.621-3.088 10.809-2.008 13.819 2.412z" clip-rule="evenodd"/>
  <path stroke="#BFBFBF" stroke-linecap="round" stroke-linejoin="round" stroke-width="2" d="M23.724 10.098l1.761 2.44M42.905 10.098l-1.761 2.44M33.314 5v6.999"/>
</svg>
