<svg width="60" height="60" viewBox="0 0 60 60" fill="none" xmlns="http://www.w3.org/2000/svg">
<path d="M49.4737 0H10.5263C4.71279 0 0 4.71279 0 10.5263V49.4737C0 55.2872 4.71279 60 10.5263 60H49.4737C55.2872 60 60 55.2872 60 49.4737V10.5263C60 4.71279 55.2872 0 49.4737 0Z" fill="black"/>
<path d="M0 10.0002C0 4.4774 4.47715 0.000244141 10 0.000244141H60V60.0002H10C4.47715 60.0002 0 55.5231 0 50.0002V10.0002Z" fill="black"/>
<path d="M43.5369 32.0792H42.2548L44.5369 30.1971C45.3198 29.5657 45.8933 28.7122 46.1821 27.7488C46.4709 26.7854 46.4614 25.7571 46.1548 24.7992C45.8353 23.8275 45.2156 22.9823 44.3849 22.3855C43.5543 21.7886 42.5555 21.4709 41.5327 21.4782H21.2958C21.2111 21.4796 21.1278 21.4553 21.0571 21.4086C20.9863 21.3619 20.9313 21.295 20.8992 21.2165C20.8671 21.138 20.8595 21.0516 20.8773 20.9687C20.8951 20.8858 20.9375 20.8102 20.999 20.7519L34.4274 7.54554C34.4619 7.5092 34.5081 7.48632 34.5579 7.48102C34.6077 7.47572 34.6578 7.48833 34.6991 7.5166C34.7404 7.54487 34.7703 7.58694 34.7834 7.63526C34.7965 7.68359 34.792 7.735 34.7706 7.78027L30.0969 18.7203H36.0969L47.3274 -7.57446H41.9401L15.2853 18.6361C14.5664 19.3399 14.0836 20.2494 13.9034 21.2392C13.7231 22.229 13.8544 23.2503 14.279 24.1624C14.6917 25.0191 15.3403 25.7403 16.1486 26.2413C16.9568 26.7423 17.8913 27.0023 18.8422 26.9908H38.5801C38.6683 26.989 38.7549 27.0149 38.8275 27.0649C38.9002 27.115 38.9554 27.1866 38.9851 27.2696C39.0149 27.3527 39.0179 27.443 38.9935 27.5279C38.9692 27.6127 38.9188 27.6877 38.8495 27.7424L34.2611 31.5255C33.5807 32.0863 33.0446 32.8021 32.6979 33.6129L30.9969 37.5929H40.7064C40.7946 37.5911 40.8812 37.617 40.9539 37.667C41.0265 37.7171 41.0817 37.7887 41.1115 37.8718C41.1412 37.9548 41.1442 38.0452 41.1198 38.13C41.0955 38.2148 41.0451 38.2898 40.9758 38.3445L21.1748 54.6519C21.1388 54.6857 21.092 54.7059 21.0427 54.7087C20.9933 54.7116 20.9445 54.697 20.9049 54.6675C20.8652 54.638 20.8372 54.5955 20.8257 54.5474C20.8142 54.4993 20.8201 54.4487 20.8422 54.4045L28.0253 37.5929L28.639 36.1571L31.3758 29.7466H25.3758L10.5264 64.5234H17.8601L46.7632 40.7213C47.5578 40.0765 48.127 39.1959 48.3887 38.2066C48.6504 37.2173 48.5909 36.1705 48.219 35.2171C47.8466 34.2825 47.2001 33.4825 46.3643 32.9224C45.5286 32.3623 44.5429 32.0684 43.5369 32.0792Z" fill="#FF3407"/>
<path d="M16.4452 25.0148C16.4452 27.4863 14.2873 28.9685 11.7337 28.9685C10.6402 28.9815 9.56378 28.6966 8.61997 28.1442C7.88961 27.7098 7.31103 27.0606 6.96313 26.2853C6.82999 25.9818 6.72703 25.6658 6.65576 25.3421L9.77155 24.5348V24.5495C9.9311 24.9451 10.2066 25.283 10.5619 25.519C10.9172 25.755 11.3356 25.8779 11.7621 25.8716C12.5368 25.8716 12.92 25.6411 12.92 25.1632C12.92 24.7179 12.4916 24.5042 11.5031 24.2411L10.2137 23.8779C9.40633 23.7355 8.67669 23.3087 8.15689 22.6748C7.63708 22.0408 7.36147 21.2417 7.37997 20.4221C7.3305 18.2442 9.48839 16.8106 11.7621 16.8432C12.6203 16.8451 13.4643 17.0623 14.2168 17.4748C14.7133 17.7317 15.1361 18.1111 15.4452 18.5769C15.7004 18.9773 15.8842 19.4189 15.9884 19.8821L13.1368 20.619H13.1284C13.039 20.3542 12.8646 20.1263 12.6324 19.9708C12.4002 19.8153 12.1231 19.7408 11.8442 19.759C11.3337 19.759 10.9052 19.94 10.9052 20.3358C10.9052 20.7316 11.3337 20.9285 12.1905 21.1779L13.4263 21.5242C15.4358 22.0821 16.4452 23.2516 16.4452 25.0148ZM29.3926 22.9095C29.3791 23.7206 29.5312 24.5259 29.8394 25.2763C30.1477 26.0266 30.6057 26.7062 31.1855 27.2736C31.7653 27.841 32.4546 28.2841 33.2115 28.5761C33.9683 28.8681 34.7767 29.0026 35.5873 28.9716C36.398 29.0022 37.2063 28.8672 37.963 28.5749C38.7197 28.2825 39.4088 27.839 39.9883 27.2713C40.5678 26.7037 41.0254 26.0238 41.3333 25.2733C41.6412 24.5228 41.7928 23.7174 41.7789 22.9064C41.7925 22.0953 41.6406 21.2899 41.3325 20.5395C41.0244 19.7891 40.5665 19.1094 39.9868 18.542C39.4071 17.9745 38.7178 17.5312 37.961 17.2391C37.2042 16.947 36.3958 16.8123 35.5852 16.8432C34.7747 16.8125 33.9664 16.9473 33.2098 17.2394C32.4531 17.5316 31.7639 17.9749 31.1844 18.5424C30.6048 19.1098 30.147 19.7895 29.8389 20.5398C29.5309 21.2901 29.379 22.0954 29.3926 22.9064V22.9095ZM38.2558 22.9064C38.2718 23.2668 38.2146 23.6268 38.0877 23.9645C37.9608 24.3023 37.7668 24.6109 37.5174 24.8716C37.268 25.1323 36.9683 25.3398 36.6365 25.4816C36.3047 25.6234 35.9476 25.6965 35.5868 25.6965C35.226 25.6965 34.8689 25.6234 34.5371 25.4816C34.2053 25.3398 33.9057 25.1323 33.6563 24.8716C33.4069 24.6109 33.2128 24.3023 33.0859 23.9645C32.959 23.6268 32.9019 23.2668 32.9179 22.9064C32.9019 22.5459 32.959 22.1859 33.0859 21.8482C33.2128 21.5104 33.4069 21.2018 33.6563 20.9411C33.9057 20.6804 34.2053 20.4729 34.5371 20.3311C34.8689 20.1893 35.226 20.1162 35.5868 20.1162C35.9476 20.1162 36.3047 20.1893 36.6365 20.3311C36.9683 20.4729 37.268 20.6804 37.5174 20.9411C37.7668 21.2018 37.9608 21.5104 38.0877 21.8482C38.2146 22.1859 38.2718 22.5459 38.2558 22.9064ZM43.1642 17.14V28.6727H46.6242V25.4264H48.9294C49.4791 25.449 50.0274 25.3561 50.5389 25.1535C51.0504 24.9509 51.5137 24.6432 51.8988 24.2503C52.2838 23.8574 52.5821 23.388 52.7744 22.8726C52.9666 22.3571 53.0485 21.807 53.0147 21.2579C53.0446 20.7121 52.9597 20.1661 52.7654 19.6551C52.5711 19.1441 52.2718 18.6796 51.8868 18.2915C51.5018 17.9035 51.0397 17.6005 50.5303 17.4021C50.0209 17.2038 49.4755 17.1145 48.9294 17.14H43.1642ZM49.4905 21.2748C49.4905 21.8674 49.1284 22.2958 48.321 22.2958H46.6231V20.2706H48.32C49.1273 20.2706 49.4894 20.699 49.4894 21.2758L49.4905 21.2748ZM24.6021 17.14V21.5306L20.9705 22.4706V17.14H17.5116V28.6727H20.9716V25.5211L24.6031 24.5811V28.6727H28.0631V17.14H24.6021ZM7.52734 43.5H13.4221C15.7779 43.5 17.2768 42.1 17.2768 40.1727C17.3107 39.5299 17.1373 38.8932 16.7822 38.3563C16.4271 37.8195 15.909 37.4108 15.3042 37.1906C15.6312 36.9258 15.8911 36.5876 16.0629 36.2036C16.2346 35.8195 16.3133 35.4003 16.2926 34.98C16.2926 33.2337 14.8094 31.9653 12.5526 31.9653H7.52734V43.5ZM10.9873 36.3663V34.7874H12.0579C12.1699 34.7718 12.284 34.7808 12.3923 34.8136C12.5005 34.8464 12.6004 34.9023 12.685 34.9775C12.7695 35.0526 12.8368 35.1452 12.8821 35.2489C12.9274 35.3526 12.9496 35.4648 12.9473 35.5779C12.9473 36.039 12.6505 36.3685 12.0579 36.3685L10.9873 36.3663ZM10.9873 40.6663V39.0348H12.7663C13.4421 39.0348 13.8189 39.3642 13.8189 39.8421C13.8189 40.3853 13.4726 40.6663 12.7663 40.6663H10.9873ZM29.4231 37.7337C29.4097 38.5448 29.5617 39.3501 29.87 40.1005C30.1782 40.8508 30.6362 41.5304 31.216 42.0978C31.7958 42.6652 32.4852 43.1084 33.242 43.4003C33.9988 43.6923 34.8073 43.8268 35.6179 43.7958C36.7342 43.8427 37.8411 43.5738 38.8115 43.0201C39.782 42.4664 40.5766 41.6502 41.1042 40.6653L37.9579 39.1495C37.748 39.5852 37.414 39.9491 36.9978 40.1954C36.5816 40.4417 36.1018 40.5594 35.6189 40.5337C35.2562 40.5372 34.8966 40.4661 34.5625 40.3249C34.2283 40.1836 33.9268 39.9752 33.6766 39.7125C33.4264 39.4499 33.2328 39.1386 33.1079 38.798C32.983 38.4574 32.9294 38.0948 32.9505 37.7327C32.9294 37.3705 32.983 37.0079 33.1079 36.6673C33.2328 36.3267 33.4264 36.0155 33.6766 35.7528C33.9268 35.4902 34.2283 35.2817 34.5625 35.1405C34.8966 34.9992 35.2562 34.9281 35.6189 34.9316C36.1018 34.9064 36.5813 35.0244 36.9973 35.2709C37.4132 35.5173 37.7471 35.8812 37.9568 36.3169L41.1031 34.8011C40.5756 33.8162 39.7809 33 38.8105 32.4463C37.8401 31.8925 36.7331 31.6237 35.6168 31.6706C34.8061 31.6395 33.9976 31.7741 33.2407 32.0662C32.4838 32.3582 31.7944 32.8015 31.2146 33.3689C30.6348 33.9364 30.1768 34.6162 29.8686 35.3666C29.5604 36.1171 29.4085 36.9225 29.4221 37.7337H29.4231ZM42.2063 43.5H45.6663V38.7221H46.7705L49.2873 43.5H53.34L49.88 37.2895L53.0263 31.9685H49.1758L45.6663 38.0148V31.9674H42.2073L42.2063 43.5ZM29.8326 43.5H26.1768L25.5094 41.6716L21.3421 42.7506L21.0694 43.5H17.4126L22.1905 31.9674H25.0568L29.8326 43.5ZM24.4831 38.8874L23.621 36.6632L22.5684 39.3832L24.4831 38.8874Z" fill="white"/>
</svg>
