<svg width="24" height="24" viewBox="0 0 24 24" fill="none" xmlns="http://www.w3.org/2000/svg">
  <path fill-rule="evenodd" clip-rule="evenodd" d="M12 24C18.6274 24 24 18.6274 24 12C24 5.37258 18.6274 0 12 0C5.37258 0 0 5.37258 0 12C0 18.6274 5.37258 24 12 24Z" fill="#F6BF16"/>
  <path fill-rule="evenodd" clip-rule="evenodd" d="M16.6861 14.5568C16.6332 15.3699 15.5704 14.6603 15.2613 14.4148C14.6814 13.9541 14.1355 13.2452 13.67 12.5202C13.6794 12.5205 13.6888 12.5206 13.6983 12.5206C14.3493 12.5206 14.877 11.9741 14.877 11.2998C14.877 10.6256 14.3493 10.079 13.6983 10.079C13.2641 10.079 12.8848 10.3222 12.6803 10.6843C12.2542 9.62661 11.8471 8.14519 12.0632 7.21932C12.1238 6.95994 12.3092 6.96462 12.5054 7.05788C14.2655 7.89577 16.813 12.6019 16.6861 14.5568ZM12.8601 14.6629C11.0554 14.8401 9.52117 15.9559 7.99133 16.8696C7.1663 17.3629 6.09236 17.0633 5.61634 16.2093C5.07005 15.2294 5.48989 14.2006 6.39982 13.6626C7.89106 12.7819 9.51384 11.9699 10.532 10.4869C10.7444 10.1776 10.9379 9.84354 11.1225 9.47528C11.5556 11.2756 12.6096 13.2914 13.8648 14.6337C13.5153 14.6224 13.1833 14.6312 12.8601 14.6629ZM11.2132 18.1579C11.7042 18.5776 10.9305 19.1684 10.4677 18.7745L9.03386 17.5542L9.89728 17.0379L11.2132 18.1579ZM12.9597 6.0279C11.677 5.41751 11.3125 6.03031 10.9264 7.08795C10.4972 8.26546 10.1151 9.13858 9.64045 9.82981C8.74289 11.1372 7.08814 11.946 5.75812 12.7365C4.37335 13.5591 3.86533 15.336 4.66901 16.7777C5.33047 17.9642 6.70775 18.517 7.96634 18.1112L9.77332 19.6492C10.423 20.2022 11.4229 20.1579 12.0188 19.5408C12.6421 18.8951 12.5888 17.8625 11.9076 17.2832L10.9147 16.4382C11.6181 16.061 12.2605 15.8595 12.963 15.7906C13.7801 15.7103 14.7053 15.8053 15.912 16.0106C16.8808 16.2427 17.709 15.7122 17.7793 14.6323C17.9414 12.1334 15.1853 7.08677 12.9597 6.0279Z" fill="#222633"/>
  <path d="M15.7725 6.76943L17.0991 4.95215" stroke="#222633" stroke-linecap="round" stroke-linejoin="round"/>
  <path d="M18.4922 11.3849L20.741 11.3114" stroke="#222633" stroke-linecap="round" stroke-linejoin="round"/>
  <path d="M17.0361 8.98052L20.3813 7.28564" stroke="#222633" stroke-linecap="round" stroke-linejoin="round"/>
  <mask id="mask0" mask-type="alpha" maskUnits="userSpaceOnUse" x="16" y="6" width="5" height="4">
    <path fill-rule="evenodd" clip-rule="evenodd" d="M17.0361 8.98052L20.3813 7.28564L17.0361 8.98052Z" fill="white"/>
    <path d="M17.0361 8.98052L20.3813 7.28564" stroke="white" stroke-linecap="round" stroke-linejoin="round"/>
  </mask>
  <g mask="url(#mask0)"></g>
</svg>
