<svg width="17" height="17" viewBox="0 0 17 17" fill="none" xmlns="http://www.w3.org/2000/svg">
  <circle cx="8.5" cy="8.5" r="8.5" fill="#249F6D" />
  <mask
    id="mask0_675_230425"
    style="mask-type:alpha"
    maskUnits="userSpaceOnUse"
    x="0"
    y="0"
    width="17"
    height="17"
  >
    <circle cx="8.5" cy="8.5" r="8.5" fill="#FF3407" />
  </mask>
  <g mask="url(#mask0_675_230425)">
    <path
      d="M12.4141 9.53748H12.0557L12.6937 9.00949C13.1356 8.64349 13.3291 8.0399 13.1452 7.4939C12.9552 6.92869 12.4452 6.56149 11.8539 6.56149H6.19893C6.09262 6.56149 6.04004 6.43186 6.11529 6.35746L9.86853 2.65069C9.91512 2.60509 9.99041 2.65666 9.96413 2.71666L8.65731 5.78746H10.3332L13.4725 -1.59375H11.9674L4.5194 5.7635C4.10848 6.1691 3.99499 6.78472 4.23867 7.31512C4.46564 7.80833 4.97331 8.10948 5.51324 8.10948H11.0285C11.1396 8.10948 11.1897 8.24992 11.1037 8.32072L9.82198 9.38273C9.63205 9.53993 9.48152 9.74152 9.38476 9.96832L8.90934 11.0855H11.6221C11.7332 11.0855 11.7834 11.2259 11.6974 11.2967L6.16429 15.8747C6.1165 15.9143 6.04722 15.8628 6.0723 15.8052L8.07911 11.0855L8.24995 10.6823L9.01567 8.88228H7.3397L3.1875 18.6443H5.23735L13.3136 11.9627C13.7699 11.5847 13.9324 10.9751 13.7209 10.4171C13.5167 9.87829 12.9863 9.53631 12.4129 9.53631L12.4141 9.53748Z"
      fill="white"
    />
  </g>
</svg>
