<svg width="33" height="18" viewBox="0 0 33 18" fill="none" xmlns="http://www.w3.org/2000/svg">
<path d="M31.7992 9.50793H31.492L32.0391 9.05663C32.4189 8.74357 32.5845 8.22841 32.4271 7.76259C32.2639 7.27936 31.8265 6.9657 31.3189 6.9657H26.4668C26.3756 6.9657 26.3308 6.85535 26.3953 6.79146L29.6153 3.62487C29.6548 3.58595 29.7199 3.63011 29.6978 3.68122L28.5769 6.30475H30.0144L32.7082 0H31.4164L25.0252 6.28441C24.6726 6.63116 24.5751 7.1568 24.7841 7.60925C24.9787 8.03034 25.4143 8.28765 25.8778 8.28765H30.6103C30.7055 8.28765 30.7485 8.40728 30.6747 8.46768L29.5747 9.37492C29.4115 9.50967 29.2831 9.68101 29.2001 9.87559L28.7923 10.8299H31.1202C31.2155 10.8299 31.2585 10.9495 31.1847 11.0099L26.4366 14.92C26.3953 14.9536 26.3367 14.9095 26.3576 14.8607L28.0797 10.8299L28.2266 10.4854L28.8835 8.94861H27.446L23.8833 17.2873H25.642L32.5723 11.5803C32.9643 11.2573 33.1026 10.7369 32.9213 10.2607C32.7465 9.80065 32.2906 9.50793 31.7986 9.50793H31.7992Z" fill="white"/>
<path d="M4.88871 6.46038C4.88871 7.69519 3.81014 8.43571 2.53467 8.43571C1.9585 8.43571 1.43984 8.29575 0.978673 8.02392C0.599402 7.78928 0.324676 7.4797 0.153336 7.09462C0.148108 7.08359 0.0615662 6.89655 0 6.62356L1.55658 6.22048L1.55832 6.22746C1.73024 6.63751 2.10719 6.88785 2.55093 6.88785C2.93776 6.88785 3.1271 6.77283 3.1271 6.53412C3.1271 6.31166 2.91336 6.2048 2.41909 6.07295L1.77729 5.89176C0.863672 5.62807 0.361268 5.05189 0.361268 4.16325C0.336293 3.07654 1.41486 2.3604 2.55093 2.37724C2.98713 2.37724 3.39079 2.48412 3.77761 2.69031C4.03549 2.82738 4.2411 3.01324 4.39153 3.24325C4.50828 3.41168 4.60818 3.66317 4.66335 3.8955L3.23862 4.262V4.26024L3.23455 4.262C3.11955 3.97391 2.90523 3.83393 2.59275 3.83393C2.33777 3.83393 2.12346 3.92453 2.12346 4.12201C2.12346 4.31949 2.3372 4.41822 2.76526 4.54194L3.38266 4.71502C4.38689 4.99497 4.88929 5.57927 4.88929 6.45978L4.88871 6.46038ZM11.359 5.40678C11.334 7.07778 12.6675 8.46882 14.4541 8.43571C16.2401 8.46882 17.5737 7.07778 17.5493 5.40678C17.5737 3.73578 16.2407 2.34473 14.4541 2.37784C12.6681 2.34473 11.3346 3.73578 11.359 5.40678ZM15.7877 5.40678C15.7877 6.17229 15.3021 6.80595 14.4541 6.80595C13.6061 6.80595 13.1206 6.17229 13.1206 5.40678C13.1206 4.64126 13.6061 4.00758 14.4541 4.00758C15.3021 4.00758 15.7877 4.64126 15.7877 5.40678ZM18.241 2.52594V8.28818H19.9695V6.66656H21.1219C22.3567 6.66656 23.1634 5.79418 23.1634 4.58377C23.1634 3.37335 22.3567 2.52594 21.1219 2.52594H18.241ZM21.4018 4.59188C21.4018 4.88809 21.2206 5.10242 20.8175 5.10242H19.9695V4.09008H20.8175C21.2206 4.09008 21.4018 4.30381 21.4018 4.59247V4.59188ZM8.9666 2.52594V4.71967L7.15214 5.18954V2.52594H5.42364V8.28818H7.15214V6.71361L8.9666 6.24371V8.28818H10.6951V2.52594H8.9666ZM0.43561 15.6964H3.38266C4.55997 15.6964 5.30864 14.9966 5.30864 14.0336C5.30864 13.2187 4.84747 12.7413 4.32067 12.5438C4.64999 12.2801 4.81436 11.9102 4.81436 11.4409C4.81436 10.5685 4.07383 9.9348 2.94589 9.9348H0.435032V15.697L0.43561 15.6964ZM2.16411 12.132V11.3415H2.69904C2.99526 11.3415 3.14337 11.5146 3.14337 11.7365C3.14337 11.9584 2.99526 12.1314 2.69904 12.1314H2.16411V12.132ZM2.16411 14.2804V13.4656H3.05334C3.39079 13.4656 3.58013 13.6299 3.58013 13.8686C3.58013 14.1405 3.40705 14.2804 3.05334 14.2804H2.16411ZM11.3752 12.815C11.3503 14.486 12.6838 15.8771 14.4704 15.844C15.7133 15.844 16.6932 15.2597 17.2112 14.2799L15.639 13.5225C15.4003 13.9836 15.0053 14.2136 14.4704 14.2136C13.6305 14.2136 13.1368 13.555 13.1368 12.8145C13.1368 12.0739 13.6305 11.4153 14.4704 11.4153C15.0053 11.4153 15.4003 11.6459 15.639 12.1065L17.2112 11.3491C16.6926 10.3692 15.7133 9.78494 14.4704 9.78494C12.6844 9.75183 11.3508 11.1429 11.3752 12.8139V12.815ZM17.763 15.6959H19.4915V13.3087H20.0433L21.3025 15.6959H23.3272L21.5987 12.5926L23.171 9.93363H21.245L19.4915 12.9544V9.93363H17.763V15.6959ZM11.5808 15.6959H9.7536L9.42022 14.7823L7.338 15.3212L7.2015 15.6953H5.37427L7.76141 9.93304H9.1937L11.5808 15.6953V15.6959ZM8.90793 13.3912L8.47756 12.2801L7.95192 13.6392L8.90793 13.3918V13.3912Z" fill="white"/>
</svg>
