<svg width="16" height="16" viewBox="0 0 16 16" fill="none" xmlns="http://www.w3.org/2000/svg">
<circle cx="8" cy="8" r="8" fill="#FF3407"/>
<mask id="mask0_164_131389" style="mask-type:alpha" maskUnits="userSpaceOnUse" x="0" y="0" width="16" height="16">
<circle cx="8" cy="8" r="8" fill="#FF3407"/>
</mask>
<g mask="url(#mask0_164_131389)">
<path d="M11.6839 8.47645H11.3466L11.947 7.97952C12.363 7.63505 12.5451 7.06696 12.3719 6.55308C12.1932 6.02112 11.7131 5.67552 11.1566 5.67552H5.83429C5.73423 5.67552 5.68474 5.55352 5.75557 5.4835L9.28803 1.99476C9.33187 1.95185 9.40274 2.00039 9.378 2.05686L8.14805 4.94702H9.72538L12.68 -2H11.2634L4.25355 4.92447C3.8668 5.30621 3.75999 5.88562 3.98934 6.38482C4.20295 6.84901 4.68076 7.13246 5.18893 7.13246H10.3797C10.4843 7.13246 10.5315 7.26463 10.4506 7.33126L9.24422 8.33081C9.06546 8.47876 8.92378 8.66849 8.83272 8.88195L8.38526 9.93344H10.9385C11.043 9.93344 11.0902 10.0656 11.0093 10.1322L5.80168 14.4409C5.75671 14.4782 5.6915 14.4297 5.71511 14.3755L7.60387 9.93344L7.76466 9.55392L8.48533 7.85979H6.90795L3 17.0476H4.92927L12.5305 10.7591C12.9599 10.4033 13.1128 9.8295 12.9138 9.30432C12.7216 8.79722 12.2224 8.47535 11.6828 8.47535L11.6839 8.47645Z" fill="white"/>
</g>
</svg>
